<?xml version="1.0" encoding="iso-8859-1"?>
<!-- Generator: Adobe Illustrator 16.0.0, SVG Export Plug-In . SVG Version: 6.00 Build 0)  -->
<!DOCTYPE svg PUBLIC "-//W3C//DTD SVG 1.1//EN" "http://www.w3.org/Graphics/SVG/1.1/DTD/svg11.dtd">
<svg version="1.1" id="Capa_1" xmlns="http://www.w3.org/2000/svg" xmlns:xlink="http://www.w3.org/1999/xlink" x="0px" y="0px"
	 width="519.032px" height="519.032px" viewBox="0 0 519.032 519.032" style="enable-background:new 0 0 519.032 519.032;"
	 xml:space="preserve">
<g>
	<path d="M471.138,212.157c-10.146-7.401-24.413-14.411-42.427-20.832c-5.488-1.962-12.086-4.176-19.71-6.635l9.764-22.862
		c6.854-16.265,14.986-28.616,24.399-37.048c9.399-8.433,20.279-12.843,32.624-13.237V98.017H354.349v13.527
		c31.853,0.785,39.664,12.172,39.664,34.708c0,11.174-9.655,34.824-25.144,71.683l-77.555,186.494V278.35
		c15.918-1.899,29.221-7.344,39.833-16.438c13.404-11.494,20.115-26.523,20.115-45.092c0-19.157-7.005-34.279-21.007-45.363
		c-10.207-8.076-22.268-13.174-36.134-15.365h34.257v-5.294h-7.598c-6.98,0-14.254-0.919-16.794-2.764
		c-2.525-1.838-4.087-4.679-4.66-8.517c-0.582-3.844-0.858-11.858-0.858-24.06V10.32h20.063c8.511,0,27.119,0.523,30.648,1.554
		c3.529,1.042,6.84,3.843,9.906,8.405c3.068,4.566,5.481,6.958,7.248,17.24h4.953L370.473,0H193.712l-0.803,37.519h5.297
		c1.615-9.9,3.926-12.237,6.963-17.067c3.031-4.835,6.271-7.732,9.729-8.695c3.446-0.96,10.197-1.441,20.255-1.441h30.684v105.142
		c0,13.045-0.366,21.354-1.089,24.922c-0.733,3.57-2.386,6.191-4.958,7.879c-2.565,1.691-9.703,2.534-16.383,2.534h-8.057v5.294
		h26.604c-13.761,2.208-25.711,7.363-35.815,15.543c-13.847,11.196-20.761,26.049-20.761,44.564c0,18.98,6.821,34.214,20.462,45.708
		c12.831,10.823,29.1,16.483,48.703,17.122v122.128L172.185,174.179c-9.217-20.974-8.794-34.304-8.794-39.992
		c0-8.818,3.684-14.802,11.045-17.935c7.363-3.133,16.726-4.708,38.181-4.708V98.017H41.185v13.527
		c18.78,0.394,32.375,3.822,40.791,10.282c8.422,6.451,16.446,19.075,24.071,37.864c3.667,9.283,6.658,16.697,9.004,22.312
		c-11.159,0.604-22.393,3.368-33.518,8.292c-17.036,7.554-31.125,18.625-41.887,32.931c-10.823,14.404-16.667,31.876-17.351,51.929
		c-0.685,19.83,3.126,39.257,11.318,57.742c12.523,28.277,31.552,47.484,56.553,57.094c11.062,4.245,22.509,6.401,34.03,6.401
		c14.491,0,29.505-3.403,44.651-10.112c10.777-4.776,20.066-10.884,27.855-18.271l66.336,151.023h10.326l93.962-233.269l17.864,7.58
		c4.544,1.607,7.589,3.502,9.05,5.603c1.139,1.631,3.409,6.128,7.745,18.299c3.535,9.898,6.762,20.235,9.624,30.729
		c9.127,33.664,14.003,54.885,20.927,64.647l0.457,0.65l50.301,18.971l-1.419-11.107l-2.266-0.893
		c-10.392-4.087-17.461-9.132-23.145-17.449c-5.822-8.525-7.573-22.51-14.67-49.884c-6.364-24.547-8.241-32.606-14.306-49.761
		c15.912,2.697,29.472,1.521,40.509-3.437c12.706-5.702,21.455-15.108,26.041-27.968c3.94-11.06,3.678-22.022-0.767-32.567
		C488.915,228.779,481.458,219.689,471.138,212.157z M167.747,369.338c-8.093,3.591-16.311,5.395-24.449,5.395
		c-0.005,0-0.005,0-0.005,0c-9.187,0-18.59-2.309-27.959-6.873c-17.84-8.689-32.824-26.489-44.531-52.897
		c-12.41-28.011-16.58-52.164-12.387-71.795c4.153-19.444,14.971-32.791,33.083-40.81c9.664-4.284,19.611-6.304,29.752-6.134
		l68.965,156.994C183.302,360.364,175.764,365.781,167.747,369.338z M256.498,263.602c-9.174-7.587-15.774-20.519-19.809-38.796
		c-3.973-18-3.401-32.383,1.721-43.157c5.122-10.769,14.388-17.639,27.818-20.605c13.645-3.013,25.093-0.599,34.346,7.229
		c9.259,7.828,15.838,20.583,19.743,38.238c4.005,18.172,3.384,32.641-1.883,43.416c-5.262,10.771-14.171,17.545-26.718,20.315
		C277.411,273.408,265.673,271.193,256.498,263.602z M458.298,261.485c-2.577,7.229-5.691,13.023-9.24,17.236
		c-3.502,4.148-7.367,7.18-11.481,8.996c-4.113,1.807-9.04,2.594-14.638,2.331c-5.799-0.268-12.411-1.51-19.667-3.699
		c-6.638-1.997-13.067-4.005-19.172-5.97l28.838-80.969c3.595,0.999,6.779,1.989,9.502,2.963
		c21.248,7.57,33.785,16.216,37.254,25.694C463.229,237.703,462.758,248.957,458.298,261.485z"/>
	<path d="M283.145,199.49c6.135,0,11.108,6.662,11.108,14.881c0,8.219-4.974,14.884-11.108,14.884
		c-6.126,0-11.103-6.665-11.103-14.884C272.042,206.152,277.019,199.49,283.145,199.49z"/>
</g>
<g>
</g>
<g>
</g>
<g>
</g>
<g>
</g>
<g>
</g>
<g>
</g>
<g>
</g>
<g>
</g>
<g>
</g>
<g>
</g>
<g>
</g>
<g>
</g>
<g>
</g>
<g>
</g>
<g>
</g>
</svg>
